# Alias OBJ Model File
# Exported from SketchUp, (c) 2000-2012 Trimble Navigation Limited
# File units = millimeters

mtllib ground.mtl

g Mesh1 Group1 Difference Model

usemtl Teddy_Brim
v 104700 -2300 -54700
vt 4645.67 2677.17
vn -9.42567e-19 1 -1.73619e-18
v -4700 -2300 -54700
vt 338.583 2677.17
v -4700 -2300 4700
vt 338.583 338.583
v 104700 -2300 4700
vt 4645.67 338.583
v 104709 -2300 4700
vt 4646.02 338.583
f 1/1/1 2/2/1 3/3/1 4/4/1 5/5/1 

vt -4645.67 303.15
vn 0 0 -1
vt -338.583 303.15
v -4700 0 -54700
vt -338.583 393.701
v 104700 0 -54700
vt -4645.67 393.701
f 1/6/2 2/7/2 6/8/2 7/9/2 

v 106300 -2300 -56300
vt 4708.66 2740.16
vn 0 1 -0
f 8/10/3 2/2/3 1/1/3

v -6300 -2300 -56300
vt 275.591 2740.16
f 9/11/3 2/2/3 8/10/3

f 2/2/3 9/11/3 3/3/3

v -6300 -2300 6300
vt 275.591 275.591
f 10/12/3 3/3/3 9/11/3

v 106300 -2300 6300
vt 4708.66 275.591
f 3/3/3 10/12/3 11/13/3

vt -275.591 303.15
vn -1.28226e-17 0 -1
v -6300 0 6300
vt -275.591 393.701
v 106300 0 6300
vt -4708.66 393.701
vt -4708.66 303.15
f 10/14/4 12/15/4 13/16/4 11/17/4 

vt 2740.16 303.15
vn 1 0 -0
v -6300 0 -56300
vt 2740.16 393.701
vt 275.591 393.701
vt 275.591 303.15
f 9/18/5 14/19/5 12/20/5 10/21/5 

vt 4708.66 303.15
vn 0 0 1
v 106300 0 -56300
vt 4708.66 393.701
f 8/22/6 15/23/6 14/20/6 9/21/6 

vn -1 0 -0
vt -2740.16 393.701
vt -2740.16 303.15
f 11/14/7 13/15/7 15/24/7 8/25/7 

v 113300 0 13300
vt 4984.25 0
f 13/13/3 16/26/3 15/10/3

f 12/12/3 16/26/3 13/13/3

v -13300 0 13300
vt 0 0
f 12/12/3 17/27/3 16/26/3

v -13300 0 -63300
vt 0 3015.75
f 17/27/3 12/12/3 18/28/3

f 14/11/3 18/28/3 12/12/3

v 113300 0 -63300
vt 4984.25 3015.75
f 18/28/3 14/11/3 19/29/3

f 19/29/3 14/11/3 15/10/3

f 19/29/3 15/10/3 16/26/3

vt 3015.75 393.701
vt 0 393.701
v 113300 -10000 13300
vt 0 4.54747e-13
v 113300 -10000 -63300
vt 3015.75 4.54747e-13
f 19/30/5 16/31/5 20/32/5 21/33/5 

vt 4984.25 393.701
v -13300 -10000 13300
vt 4984.25 4.54747e-13
f 16/34/6 17/31/6 22/32/6 20/35/6 

vt -3015.75 393.701
v -13300 -10000 -63300
vt -3015.75 4.54747e-13
f 17/31/7 18/36/7 23/37/7 22/32/7 

vt -4984.25 393.701
vt -4984.25 4.54747e-13
f 18/31/2 19/38/2 21/39/2 23/32/2 

vn 0 -1 -0
vt -4984.25 3015.75
vt -4984.25 0
f 23/28/8 21/40/8 20/41/8 22/27/8 

f 8/10/3 5/5/3 11/13/3

f 8/10/3 1/1/3 5/5/3

f 4/4/3 11/13/3 5/5/3

f 3/3/3 11/13/3 4/4/3

vt 338.583 303.15
vn -2.96947e-17 -4.70812e-16 1
vt 4645.67 303.15
v 104700 0 4700
vt 4645.67 393.701
v -4700 0 4700
vt 338.583 393.701
f 3/42/9 4/43/9 24/44/9 25/45/9 

v 5400 0 -5400
vt 736.22 736.22
f 26/46/3 25/3/3 24/4/3

f 25/3/3 26/46/3 6/2/3

v 5400 0 -44600
vt 736.22 2279.53
f 27/47/3 6/2/3 26/46/3

f 6/2/3 27/47/3 7/1/3

v 94600 0 -44600
vt 4248.03 2279.53
f 7/1/3 27/47/3 28/48/3

vt 4248.03 393.701
vt 736.22 393.701
v 5400 -2500 -44600
vt 736.22 295.276
v 94600 -2500 -44600
vt 4248.03 295.276
f 28/49/6 27/50/6 29/51/6 30/52/6 

vt 2279.53 393.701
vn 1 0 1.10497e-16
v 5400 -2500 -5400
vt 2279.53 295.276
f 27/53/10 26/50/10 31/51/10 29/54/10 

vt -736.22 393.701
vn 8.09318e-17 0 -1
v 94600 0 -5400
vt -4248.03 393.701
v 94600 -2500 -5400
vt -4248.03 295.276
vt -736.22 295.276
f 26/55/11 32/56/11 33/57/11 31/58/11 

vt 4248.03 736.22
f 26/46/3 24/4/3 32/59/3

f 32/59/3 24/4/3 28/48/3

f 7/1/3 28/48/3 24/4/3

vt -2279.53 393.701
vt -2279.53 295.276
f 32/55/7 28/60/7 30/61/7 33/58/7 

v 93600 -2500 -43600
vt 4208.66 2240.16
f 30/48/3 34/62/3 33/59/3

v 6400 -2500 -43600
vt 775.591 2240.16
f 30/48/3 35/63/3 34/62/3

f 29/47/3 35/63/3 30/48/3

v 6400 -2500 -6400
vt 775.591 775.591
f 35/63/3 29/47/3 36/64/3

f 31/46/3 36/64/3 29/47/3

f 36/64/3 31/46/3 33/59/3

v 93600 -2500 -6400
vt 4208.66 775.591
f 36/64/3 33/59/3 37/65/3

f 37/65/3 33/59/3 34/62/3

v 93600 0 -43600
vt 2240.16 393.701
v 93600 0 -6400
vt 775.591 393.701
vt 775.591 295.276
vt 2240.16 295.276
f 38/66/5 39/67/5 37/68/5 34/69/5 

v 6400 0 -6400
v 6400 0 -43600
f 40/64/3 39/65/3 38/62/3 41/63/3 

vt 4208.66 393.701
vt 4208.66 295.276
f 39/70/6 40/67/6 36/68/6 37/71/6 

vt -775.591 393.701
vn -1 0 -9.70311e-17
vt -2240.16 393.701
vt -2240.16 295.276
vt -775.591 295.276
f 40/72/12 41/73/12 35/74/12 36/75/12 

vt -4208.66 393.701
vt -4208.66 295.276
f 41/72/2 38/76/2 34/77/2 35/75/2 

vt -2677.17 303.15
vt -2677.17 393.701
f 2/78/7 3/7/7 25/8/7 6/79/7 

